<?xml version="1.0" encoding="utf-8" standalone="no"?>
<!DOCTYPE svg PUBLIC "-//W3C//DTD SVG 1.1//EN"
  "http://www.w3.org/Graphics/SVG/1.1/DTD/svg11.dtd">
<svg xmlns:xlink="http://www.w3.org/1999/xlink" width="921.090703pt" height="352.321641pt" viewBox="0 0 921.090703 352.321641" xmlns="http://www.w3.org/2000/svg" version="1.1">
 <metadata>
  <rdf:RDF xmlns:dc="http://purl.org/dc/elements/1.1/" xmlns:cc="http://creativecommons.org/ns#" xmlns:rdf="http://www.w3.org/1999/02/22-rdf-syntax-ns#">
   <cc:Work>
    <dc:type rdf:resource="http://purl.org/dc/dcmitype/StillImage"/>
    <dc:date>2026-10-07T16:02:46.842023</dc:date>
    <dc:format>image/svg+xml</dc:format>
    <dc:creator>
     <cc:Agent>
      <dc:title>Matplotlib v3.10.0, https://matplotlib.org/</dc:title>
     </cc:Agent>
    </dc:creator>
   </cc:Work>
  </rdf:RDF>
 </metadata>
 <defs>
  <style type="text/css">*{stroke-linejoin: round; stroke-linecap: butt}</style>
 </defs>
 <g id="figure_1">
  <g id="patch_1">
   <path d="M 0 352.321641 
L 921.090703 352.321641 
L 921.090703 0 
L 0 0 
z
" style="fill: #ffffff"/>
  </g>
  <g id="axes_1">
   <g id="patch_2">
    <path d="M 53.112703 308.484 
L 453.018703 308.484 
L 453.018703 59.0595 
L 53.112703 59.0595 
z
" style="fill: #ffffff"/>
   </g>
   <g id="matplotlib.axis_1">
    <g id="xtick_1">
     <g id="line2d_1">
      <path d="M 70.02705 308.484 
L 70.02705 59.0595 
" clip-path="url(#pd046077424)" style="fill: none; stroke: #cccccc; stroke-linecap: round"/>
     </g>
     <g id="line2d_2">
      <defs>
       <path id="m8479bdf294" d="M 0 0 
L 0 6 
" style="stroke: #262626; stroke-width: 1.25"/>
      </defs>
      <g>
       <use xlink:href="#m8479bdf294" x="70.02705" y="308.484" style="fill: #262626; stroke: #262626; stroke-width: 1.25"/>
      </g>
     </g>
     <g id="text_1">
      <!-- −10 -->
      <g style="fill: #262626" transform="translate(59.764737 326.644953) scale(0.121 -0.121)">
       <defs>
        <path id="ArialMT-2212" d="M 3381 1997 
L 356 1997 
L 356 2522 
L 3381 2522 
L 3381 1997 
z
" transform="scale(0.015625)"/>
        <path id="ArialMT-31" d="M 2384 0 
L 1822 0 
L 1822 3584 
Q 1619 3391 1289 3197 
Q 959 3003 697 2906 
L 697 3450 
Q 1169 3672 1522 3987 
Q 1875 4303 2022 4600 
L 2384 4600 
L 2384 0 
z
" transform="scale(0.015625)"/>
        <path id="ArialMT-30" d="M 266 2259 
Q 266 3072 433 3567 
Q 600 4063 929 4331 
Q 1259 4600 1759 4600 
Q 2128 4600 2406 4451 
Q 2684 4303 2865 4023 
Q 3047 3744 3150 3342 
Q 3253 2941 3253 2259 
Q 3253 1453 3087 958 
Q 2922 463 2592 192 
Q 2263 -78 1759 -78 
Q 1097 -78 719 397 
Q 266 969 266 2259 
z
M 844 2259 
Q 844 1131 1108 757 
Q 1372 384 1759 384 
Q 2147 384 2411 759 
Q 2675 1134 2675 2259 
Q 2675 3391 2411 3762 
Q 2147 4134 1753 4134 
Q 1366 4134 1134 3806 
Q 844 3388 844 2259 
z
" transform="scale(0.015625)"/>
       </defs>
       <use xlink:href="#ArialMT-2212"/>
       <use xlink:href="#ArialMT-31" transform="translate(58.398438 0)"/>
       <use xlink:href="#ArialMT-30" transform="translate(114.013672 0)"/>
      </g>
     </g>
    </g>
    <g id="xtick_2">
     <g id="line2d_3">
      <path d="M 152.663327 308.484 
L 152.663327 59.0595 
" clip-path="url(#pd046077424)" style="fill: none; stroke: #cccccc; stroke-linecap: round"/>
     </g>
     <g id="line2d_4">
      <g>
       <use xlink:href="#m8479bdf294" x="152.663327" y="308.484" style="fill: #262626; stroke: #262626; stroke-width: 1.25"/>
      </g>
     </g>
     <g id="text_2">
      <!-- −5 -->
      <g style="fill: #262626" transform="translate(145.765382 326.644953) scale(0.121 -0.121)">
       <defs>
        <path id="ArialMT-35" d="M 266 1200 
L 856 1250 
Q 922 819 1161 601 
Q 1400 384 1738 384 
Q 2144 384 2425 690 
Q 2706 997 2706 1503 
Q 2706 1984 2436 2262 
Q 2166 2541 1728 2541 
Q 1456 2541 1237 2417 
Q 1019 2294 894 2097 
L 366 2166 
L 809 4519 
L 3088 4519 
L 3088 3981 
L 1259 3981 
L 1013 2750 
Q 1425 3038 1878 3038 
Q 2478 3038 2890 2622 
Q 3303 2206 3303 1553 
Q 3303 931 2941 478 
Q 2500 -78 1738 -78 
Q 1113 -78 717 272 
Q 322 622 266 1200 
z
" transform="scale(0.015625)"/>
       </defs>
       <use xlink:href="#ArialMT-2212"/>
       <use xlink:href="#ArialMT-35" transform="translate(58.398438 0)"/>
      </g>
     </g>
    </g>
    <g id="xtick_3">
     <g id="line2d_5">
      <path d="M 235.299605 308.484 
L 235.299605 59.0595 
" clip-path="url(#pd046077424)" style="fill: none; stroke: #cccccc; stroke-linecap: round"/>
     </g>
     <g id="line2d_6">
      <g>
       <use xlink:href="#m8479bdf294" x="235.299605" y="308.484" style="fill: #262626; stroke: #262626; stroke-width: 1.25"/>
      </g>
     </g>
     <g id="text_3">
      <!-- 0 -->
      <g style="fill: #262626" transform="translate(231.935237 326.644953) scale(0.121 -0.121)">
       <use xlink:href="#ArialMT-30"/>
      </g>
     </g>
    </g>
    <g id="xtick_4">
     <g id="line2d_7">
      <path d="M 317.935882 308.484 
L 317.935882 59.0595 
" clip-path="url(#pd046077424)" style="fill: none; stroke: #cccccc; stroke-linecap: round"/>
     </g>
     <g id="line2d_8">
      <g>
       <use xlink:href="#m8479bdf294" x="317.935882" y="308.484" style="fill: #262626; stroke: #262626; stroke-width: 1.25"/>
      </g>
     </g>
     <g id="text_4">
      <!-- 5 -->
      <g style="fill: #262626" transform="translate(314.571515 326.644953) scale(0.121 -0.121)">
       <use xlink:href="#ArialMT-35"/>
      </g>
     </g>
    </g>
    <g id="xtick_5">
     <g id="line2d_9">
      <path d="M 400.57216 308.484 
L 400.57216 59.0595 
" clip-path="url(#pd046077424)" style="fill: none; stroke: #cccccc; stroke-linecap: round"/>
     </g>
     <g id="line2d_10">
      <g>
       <use xlink:href="#m8479bdf294" x="400.57216" y="308.484" style="fill: #262626; stroke: #262626; stroke-width: 1.25"/>
      </g>
     </g>
     <g id="text_5">
      <!-- 10 -->
      <g style="fill: #262626" transform="translate(393.843425 326.644953) scale(0.121 -0.121)">
       <use xlink:href="#ArialMT-31"/>
       <use xlink:href="#ArialMT-30" transform="translate(55.615234 0)"/>
      </g>
     </g>
    </g>
    <g id="text_6">
     <!-- y -->
     <g style="fill: #262626" transform="translate(249.765703 342.343453) scale(0.132 -0.132)">
      <defs>
       <path id="ArialMT-79" d="M 397 -1278 
L 334 -750 
Q 519 -800 656 -800 
Q 844 -800 956 -737 
Q 1069 -675 1141 -563 
Q 1194 -478 1313 -144 
Q 1328 -97 1363 -6 
L 103 3319 
L 709 3319 
L 1400 1397 
Q 1534 1031 1641 628 
Q 1738 1016 1872 1384 
L 2581 3319 
L 3144 3319 
L 1881 -56 
Q 1678 -603 1566 -809 
Q 1416 -1088 1222 -1217 
Q 1028 -1347 759 -1347 
Q 597 -1347 397 -1278 
z
" transform="scale(0.015625)"/>
      </defs>
      <use xlink:href="#ArialMT-79"/>
     </g>
    </g>
   </g>
   <g id="matplotlib.axis_2">
    <g id="ytick_1">
     <g id="line2d_11">
      <path d="M 53.112703 308.484 
L 453.018703 308.484 
" clip-path="url(#pd046077424)" style="fill: none; stroke: #cccccc; stroke-linecap: round"/>
     </g>
     <g id="line2d_12">
      <defs>
       <path id="m71ab13acde" d="M 0 0 
L -6 0 
" style="stroke: #262626; stroke-width: 1.25"/>
      </defs>
      <g>
       <use xlink:href="#m71ab13acde" x="53.112703" y="308.484" style="fill: #262626; stroke: #262626; stroke-width: 1.25"/>
      </g>
     </g>
     <g id="text_7">
      <!-- 0 -->
      <g style="fill: #262626" transform="translate(36.883969 312.814477) scale(0.121 -0.121)">
       <use xlink:href="#ArialMT-30"/>
      </g>
     </g>
    </g>
    <g id="ytick_2">
     <g id="line2d_13">
      <path d="M 53.112703 267.527596 
L 453.018703 267.527596 
" clip-path="url(#pd046077424)" style="fill: none; stroke: #cccccc; stroke-linecap: round"/>
     </g>
     <g id="line2d_14">
      <g>
       <use xlink:href="#m71ab13acde" x="53.112703" y="267.527596" style="fill: #262626; stroke: #262626; stroke-width: 1.25"/>
      </g>
     </g>
     <g id="text_8">
      <!-- 20 -->
      <g style="fill: #262626" transform="translate(30.155234 271.858073) scale(0.121 -0.121)">
       <defs>
        <path id="ArialMT-32" d="M 3222 541 
L 3222 0 
L 194 0 
Q 188 203 259 391 
Q 375 700 629 1000 
Q 884 1300 1366 1694 
Q 2113 2306 2375 2664 
Q 2638 3022 2638 3341 
Q 2638 3675 2398 3904 
Q 2159 4134 1775 4134 
Q 1369 4134 1125 3890 
Q 881 3647 878 3216 
L 300 3275 
Q 359 3922 746 4261 
Q 1134 4600 1788 4600 
Q 2447 4600 2831 4234 
Q 3216 3869 3216 3328 
Q 3216 3053 3103 2787 
Q 2991 2522 2730 2228 
Q 2469 1934 1863 1422 
Q 1356 997 1212 845 
Q 1069 694 975 541 
L 3222 541 
z
" transform="scale(0.015625)"/>
       </defs>
       <use xlink:href="#ArialMT-32"/>
       <use xlink:href="#ArialMT-30" transform="translate(55.615234 0)"/>
      </g>
     </g>
    </g>
    <g id="ytick_3">
     <g id="line2d_15">
      <path d="M 53.112703 226.571192 
L 453.018703 226.571192 
" clip-path="url(#pd046077424)" style="fill: none; stroke: #cccccc; stroke-linecap: round"/>
     </g>
     <g id="line2d_16">
      <g>
       <use xlink:href="#m71ab13acde" x="53.112703" y="226.571192" style="fill: #262626; stroke: #262626; stroke-width: 1.25"/>
      </g>
     </g>
     <g id="text_9">
      <!-- 40 -->
      <g style="fill: #262626" transform="translate(30.155234 230.901669) scale(0.121 -0.121)">
       <defs>
        <path id="ArialMT-34" d="M 2069 0 
L 2069 1097 
L 81 1097 
L 81 1613 
L 2172 4581 
L 2631 4581 
L 2631 1613 
L 3250 1613 
L 3250 1097 
L 2631 1097 
L 2631 0 
L 2069 0 
z
M 2069 1613 
L 2069 3678 
L 634 1613 
L 2069 1613 
z
" transform="scale(0.015625)"/>
       </defs>
       <use xlink:href="#ArialMT-34"/>
       <use xlink:href="#ArialMT-30" transform="translate(55.615234 0)"/>
      </g>
     </g>
    </g>
    <g id="ytick_4">
     <g id="line2d_17">
      <path d="M 53.112703 185.614788 
L 453.018703 185.614788 
" clip-path="url(#pd046077424)" style="fill: none; stroke: #cccccc; stroke-linecap: round"/>
     </g>
     <g id="line2d_18">
      <g>
       <use xlink:href="#m71ab13acde" x="53.112703" y="185.614788" style="fill: #262626; stroke: #262626; stroke-width: 1.25"/>
      </g>
     </g>
     <g id="text_10">
      <!-- 60 -->
      <g style="fill: #262626" transform="translate(30.155234 189.945265) scale(0.121 -0.121)">
       <defs>
        <path id="ArialMT-36" d="M 3184 3459 
L 2625 3416 
Q 2550 3747 2413 3897 
Q 2184 4138 1850 4138 
Q 1581 4138 1378 3988 
Q 1113 3794 959 3422 
Q 806 3050 800 2363 
Q 1003 2672 1297 2822 
Q 1591 2972 1913 2972 
Q 2475 2972 2870 2558 
Q 3266 2144 3266 1488 
Q 3266 1056 3080 686 
Q 2894 316 2569 119 
Q 2244 -78 1831 -78 
Q 1128 -78 684 439 
Q 241 956 241 2144 
Q 241 3472 731 4075 
Q 1159 4600 1884 4600 
Q 2425 4600 2770 4297 
Q 3116 3994 3184 3459 
z
M 888 1484 
Q 888 1194 1011 928 
Q 1134 663 1356 523 
Q 1578 384 1822 384 
Q 2178 384 2434 671 
Q 2691 959 2691 1453 
Q 2691 1928 2437 2201 
Q 2184 2475 1800 2475 
Q 1419 2475 1153 2201 
Q 888 1928 888 1484 
z
" transform="scale(0.015625)"/>
       </defs>
       <use xlink:href="#ArialMT-36"/>
       <use xlink:href="#ArialMT-30" transform="translate(55.615234 0)"/>
      </g>
     </g>
    </g>
    <g id="ytick_5">
     <g id="line2d_19">
      <path d="M 53.112703 144.658384 
L 453.018703 144.658384 
" clip-path="url(#pd046077424)" style="fill: none; stroke: #cccccc; stroke-linecap: round"/>
     </g>
     <g id="line2d_20">
      <g>
       <use xlink:href="#m71ab13acde" x="53.112703" y="144.658384" style="fill: #262626; stroke: #262626; stroke-width: 1.25"/>
      </g>
     </g>
     <g id="text_11">
      <!-- 80 -->
      <g style="fill: #262626" transform="translate(30.155234 148.988861) scale(0.121 -0.121)">
       <defs>
        <path id="ArialMT-38" d="M 1131 2484 
Q 781 2613 612 2850 
Q 444 3088 444 3419 
Q 444 3919 803 4259 
Q 1163 4600 1759 4600 
Q 2359 4600 2725 4251 
Q 3091 3903 3091 3403 
Q 3091 3084 2923 2848 
Q 2756 2613 2416 2484 
Q 2838 2347 3058 2040 
Q 3278 1734 3278 1309 
Q 3278 722 2862 322 
Q 2447 -78 1769 -78 
Q 1091 -78 675 323 
Q 259 725 259 1325 
Q 259 1772 486 2073 
Q 713 2375 1131 2484 
z
M 1019 3438 
Q 1019 3113 1228 2906 
Q 1438 2700 1772 2700 
Q 2097 2700 2305 2904 
Q 2513 3109 2513 3406 
Q 2513 3716 2298 3927 
Q 2084 4138 1766 4138 
Q 1444 4138 1231 3931 
Q 1019 3725 1019 3438 
z
M 838 1322 
Q 838 1081 952 856 
Q 1066 631 1291 507 
Q 1516 384 1775 384 
Q 2178 384 2440 643 
Q 2703 903 2703 1303 
Q 2703 1709 2433 1975 
Q 2163 2241 1756 2241 
Q 1359 2241 1098 1978 
Q 838 1716 838 1322 
z
" transform="scale(0.015625)"/>
       </defs>
       <use xlink:href="#ArialMT-38"/>
       <use xlink:href="#ArialMT-30" transform="translate(55.615234 0)"/>
      </g>
     </g>
    </g>
    <g id="ytick_6">
     <g id="line2d_21">
      <path d="M 53.112703 103.70198 
L 453.018703 103.70198 
" clip-path="url(#pd046077424)" style="fill: none; stroke: #cccccc; stroke-linecap: round"/>
     </g>
     <g id="line2d_22">
      <g>
       <use xlink:href="#m71ab13acde" x="53.112703" y="103.70198" style="fill: #262626; stroke: #262626; stroke-width: 1.25"/>
      </g>
     </g>
     <g id="text_12">
      <!-- 100 -->
      <g style="fill: #262626" transform="translate(23.4265 108.032457) scale(0.121 -0.121)">
       <use xlink:href="#ArialMT-31"/>
       <use xlink:href="#ArialMT-30" transform="translate(55.615234 0)"/>
       <use xlink:href="#ArialMT-30" transform="translate(111.230469 0)"/>
      </g>
     </g>
    </g>
    <g id="ytick_7">
     <g id="line2d_23">
      <path d="M 53.112703 62.745576 
L 453.018703 62.745576 
" clip-path="url(#pd046077424)" style="fill: none; stroke: #cccccc; stroke-linecap: round"/>
     </g>
     <g id="line2d_24">
      <g>
       <use xlink:href="#m71ab13acde" x="53.112703" y="62.745576" style="fill: #262626; stroke: #262626; stroke-width: 1.25"/>
      </g>
     </g>
     <g id="text_13">
      <!-- 120 -->
      <g style="fill: #262626" transform="translate(23.4265 67.076053) scale(0.121 -0.121)">
       <use xlink:href="#ArialMT-31"/>
       <use xlink:href="#ArialMT-32" transform="translate(55.615234 0)"/>
       <use xlink:href="#ArialMT-30" transform="translate(111.230469 0)"/>
      </g>
     </g>
    </g>
    <g id="text_14">
     <!-- Frequency -->
     <g style="fill: #262626" transform="translate(16.648312 214.951594) rotate(-90) scale(0.132 -0.132)">
      <defs>
       <path id="ArialMT-46" d="M 525 0 
L 525 4581 
L 3616 4581 
L 3616 4041 
L 1131 4041 
L 1131 2622 
L 3281 2622 
L 3281 2081 
L 1131 2081 
L 1131 0 
L 525 0 
z
" transform="scale(0.015625)"/>
       <path id="ArialMT-72" d="M 416 0 
L 416 3319 
L 922 3319 
L 922 2816 
Q 1116 3169 1280 3281 
Q 1444 3394 1641 3394 
Q 1925 3394 2219 3213 
L 2025 2691 
Q 1819 2813 1613 2813 
Q 1428 2813 1281 2702 
Q 1134 2591 1072 2394 
Q 978 2094 978 1738 
L 978 0 
L 416 0 
z
" transform="scale(0.015625)"/>
       <path id="ArialMT-65" d="M 2694 1069 
L 3275 997 
Q 3138 488 2766 206 
Q 2394 -75 1816 -75 
Q 1088 -75 661 373 
Q 234 822 234 1631 
Q 234 2469 665 2931 
Q 1097 3394 1784 3394 
Q 2450 3394 2872 2941 
Q 3294 2488 3294 1666 
Q 3294 1616 3291 1516 
L 816 1516 
Q 847 969 1125 678 
Q 1403 388 1819 388 
Q 2128 388 2347 550 
Q 2566 713 2694 1069 
z
M 847 1978 
L 2700 1978 
Q 2663 2397 2488 2606 
Q 2219 2931 1791 2931 
Q 1403 2931 1139 2672 
Q 875 2413 847 1978 
z
" transform="scale(0.015625)"/>
       <path id="ArialMT-71" d="M 2538 -1272 
L 2538 353 
Q 2406 169 2170 47 
Q 1934 -75 1669 -75 
Q 1078 -75 651 397 
Q 225 869 225 1691 
Q 225 2191 398 2587 
Q 572 2984 901 3189 
Q 1231 3394 1625 3394 
Q 2241 3394 2594 2875 
L 2594 3319 
L 3100 3319 
L 3100 -1272 
L 2538 -1272 
z
M 803 1669 
Q 803 1028 1072 708 
Q 1341 388 1716 388 
Q 2075 388 2334 692 
Q 2594 997 2594 1619 
Q 2594 2281 2320 2615 
Q 2047 2950 1678 2950 
Q 1313 2950 1058 2639 
Q 803 2328 803 1669 
z
" transform="scale(0.015625)"/>
       <path id="ArialMT-75" d="M 2597 0 
L 2597 488 
Q 2209 -75 1544 -75 
Q 1250 -75 995 37 
Q 741 150 617 320 
Q 494 491 444 738 
Q 409 903 409 1263 
L 409 3319 
L 972 3319 
L 972 1478 
Q 972 1038 1006 884 
Q 1059 663 1231 536 
Q 1403 409 1656 409 
Q 1909 409 2131 539 
Q 2353 669 2445 892 
Q 2538 1116 2538 1541 
L 2538 3319 
L 3100 3319 
L 3100 0 
L 2597 0 
z
" transform="scale(0.015625)"/>
       <path id="ArialMT-6e" d="M 422 0 
L 422 3319 
L 928 3319 
L 928 2847 
Q 1294 3394 1984 3394 
Q 2284 3394 2536 3286 
Q 2788 3178 2913 3003 
Q 3038 2828 3088 2588 
Q 3119 2431 3119 2041 
L 3119 0 
L 2556 0 
L 2556 2019 
Q 2556 2363 2490 2533 
Q 2425 2703 2258 2804 
Q 2091 2906 1866 2906 
Q 1506 2906 1245 2678 
Q 984 2450 984 1813 
L 984 0 
L 422 0 
z
" transform="scale(0.015625)"/>
       <path id="ArialMT-63" d="M 2588 1216 
L 3141 1144 
Q 3050 572 2676 248 
Q 2303 -75 1759 -75 
Q 1078 -75 664 370 
Q 250 816 250 1647 
Q 250 2184 428 2587 
Q 606 2991 970 3192 
Q 1334 3394 1763 3394 
Q 2303 3394 2647 3120 
Q 2991 2847 3088 2344 
L 2541 2259 
Q 2463 2594 2264 2762 
Q 2066 2931 1784 2931 
Q 1359 2931 1093 2626 
Q 828 2322 828 1663 
Q 828 994 1084 691 
Q 1341 388 1753 388 
Q 2084 388 2306 591 
Q 2528 794 2588 1216 
z
" transform="scale(0.015625)"/>
      </defs>
      <use xlink:href="#ArialMT-46"/>
      <use xlink:href="#ArialMT-72" transform="translate(61.083984 0)"/>
      <use xlink:href="#ArialMT-65" transform="translate(94.384766 0)"/>
      <use xlink:href="#ArialMT-71" transform="translate(150 0)"/>
      <use xlink:href="#ArialMT-75" transform="translate(205.615234 0)"/>
      <use xlink:href="#ArialMT-65" transform="translate(261.230469 0)"/>
      <use xlink:href="#ArialMT-6e" transform="translate(316.845703 0)"/>
      <use xlink:href="#ArialMT-63" transform="translate(372.460938 0)"/>
      <use xlink:href="#ArialMT-79" transform="translate(422.460938 0)"/>
     </g>
    </g>
   </g>
   <g id="patch_3">
    <path d="M 71.290249 308.484 
L 83.408612 308.484 
L 83.408612 302.340539 
L 71.290249 302.340539 
z
" clip-path="url(#pd046077424)" style="fill: #1f77b4; stroke: #000000; stroke-linejoin: miter"/>
   </g>
   <g id="patch_4">
    <path d="M 83.408612 308.484 
L 95.526976 308.484 
L 95.526976 302.340539 
L 83.408612 302.340539 
z
" clip-path="url(#pd046077424)" style="fill: #1f77b4; stroke: #000000; stroke-linejoin: miter"/>
   </g>
   <g id="patch_5">
    <path d="M 95.526976 308.484 
L 107.645339 308.484 
L 107.645339 302.340539 
L 95.526976 302.340539 
z
" clip-path="url(#pd046077424)" style="fill: #1f77b4; stroke: #000000; stroke-linejoin: miter"/>
   </g>
   <g id="patch_6">
    <path d="M 107.645339 308.484 
L 119.763703 308.484 
L 119.763703 300.292719 
L 107.645339 300.292719 
z
" clip-path="url(#pd046077424)" style="fill: #1f77b4; stroke: #000000; stroke-linejoin: miter"/>
   </g>
   <g id="patch_7">
    <path d="M 119.763703 308.484 
L 131.882067 308.484 
L 131.882067 298.244899 
L 119.763703 298.244899 
z
" clip-path="url(#pd046077424)" style="fill: #1f77b4; stroke: #000000; stroke-linejoin: miter"/>
   </g>
   <g id="patch_8">
    <path d="M 131.882067 308.484 
L 144.00043 308.484 
L 144.00043 285.957978 
L 131.882067 285.957978 
z
" clip-path="url(#pd046077424)" style="fill: #1f77b4; stroke: #000000; stroke-linejoin: miter"/>
   </g>
   <g id="patch_9">
    <path d="M 144.00043 308.484 
L 156.118794 308.484 
L 156.118794 279.814517 
L 144.00043 279.814517 
z
" clip-path="url(#pd046077424)" style="fill: #1f77b4; stroke: #000000; stroke-linejoin: miter"/>
   </g>
   <g id="patch_10">
    <path d="M 156.118794 308.484 
L 168.237158 308.484 
L 168.237158 273.671057 
L 156.118794 273.671057 
z
" clip-path="url(#pd046077424)" style="fill: #1f77b4; stroke: #000000; stroke-linejoin: miter"/>
   </g>
   <g id="patch_11">
    <path d="M 168.237158 308.484 
L 180.355521 308.484 
L 180.355521 261.384135 
L 168.237158 261.384135 
z
" clip-path="url(#pd046077424)" style="fill: #1f77b4; stroke: #000000; stroke-linejoin: miter"/>
   </g>
   <g id="patch_12">
    <path d="M 180.355521 308.484 
L 192.473885 308.484 
L 192.473885 214.284271 
L 180.355521 214.284271 
z
" clip-path="url(#pd046077424)" style="fill: #1f77b4; stroke: #000000; stroke-linejoin: miter"/>
   </g>
   <g id="patch_13">
    <path d="M 192.473885 308.484 
L 204.592249 308.484 
L 204.592249 195.853889 
L 192.473885 195.853889 
z
" clip-path="url(#pd046077424)" style="fill: #1f77b4; stroke: #000000; stroke-linejoin: miter"/>
   </g>
   <g id="patch_14">
    <path d="M 204.592249 308.484 
L 216.710612 308.484 
L 216.710612 181.519148 
L 204.592249 181.519148 
z
" clip-path="url(#pd046077424)" style="fill: #1f77b4; stroke: #000000; stroke-linejoin: miter"/>
   </g>
   <g id="patch_15">
    <path d="M 216.710612 308.484 
L 228.828976 308.484 
L 228.828976 120.084542 
L 216.710612 120.084542 
z
" clip-path="url(#pd046077424)" style="fill: #1f77b4; stroke: #000000; stroke-linejoin: miter"/>
   </g>
   <g id="patch_16">
    <path d="M 228.828976 308.484 
L 240.947339 308.484 
L 240.947339 105.7498 
L 228.828976 105.7498 
z
" clip-path="url(#pd046077424)" style="fill: #1f77b4; stroke: #000000; stroke-linejoin: miter"/>
   </g>
   <g id="patch_17">
    <path d="M 240.947339 308.484 
L 253.065703 308.484 
L 253.065703 70.936857 
L 240.947339 70.936857 
z
" clip-path="url(#pd046077424)" style="fill: #1f77b4; stroke: #000000; stroke-linejoin: miter"/>
   </g>
   <g id="patch_18">
    <path d="M 253.065703 308.484 
L 265.184067 308.484 
L 265.184067 111.893261 
L 253.065703 111.893261 
z
" clip-path="url(#pd046077424)" style="fill: #1f77b4; stroke: #000000; stroke-linejoin: miter"/>
   </g>
   <g id="patch_19">
    <path d="M 265.184067 308.484 
L 277.30243 308.484 
L 277.30243 150.801845 
L 265.184067 150.801845 
z
" clip-path="url(#pd046077424)" style="fill: #1f77b4; stroke: #000000; stroke-linejoin: miter"/>
   </g>
   <g id="patch_20">
    <path d="M 277.30243 308.484 
L 289.420794 308.484 
L 289.420794 163.088766 
L 277.30243 163.088766 
z
" clip-path="url(#pd046077424)" style="fill: #1f77b4; stroke: #000000; stroke-linejoin: miter"/>
   </g>
   <g id="patch_21">
    <path d="M 289.420794 308.484 
L 301.539158 308.484 
L 301.539158 185.614788 
L 289.420794 185.614788 
z
" clip-path="url(#pd046077424)" style="fill: #1f77b4; stroke: #000000; stroke-linejoin: miter"/>
   </g>
   <g id="patch_22">
    <path d="M 301.539158 308.484 
L 313.657521 308.484 
L 313.657521 226.571192 
L 301.539158 226.571192 
z
" clip-path="url(#pd046077424)" style="fill: #1f77b4; stroke: #000000; stroke-linejoin: miter"/>
   </g>
   <g id="patch_23">
    <path d="M 313.657521 308.484 
L 325.775885 308.484 
L 325.775885 253.192855 
L 313.657521 253.192855 
z
" clip-path="url(#pd046077424)" style="fill: #1f77b4; stroke: #000000; stroke-linejoin: miter"/>
   </g>
   <g id="patch_24">
    <path d="M 325.775885 308.484 
L 337.894249 308.484 
L 337.894249 263.431956 
L 325.775885 263.431956 
z
" clip-path="url(#pd046077424)" style="fill: #1f77b4; stroke: #000000; stroke-linejoin: miter"/>
   </g>
   <g id="patch_25">
    <path d="M 337.894249 308.484 
L 350.012612 308.484 
L 350.012612 275.718877 
L 337.894249 275.718877 
z
" clip-path="url(#pd046077424)" style="fill: #1f77b4; stroke: #000000; stroke-linejoin: miter"/>
   </g>
   <g id="patch_26">
    <path d="M 350.012612 308.484 
L 362.130976 308.484 
L 362.130976 275.718877 
L 350.012612 275.718877 
z
" clip-path="url(#pd046077424)" style="fill: #1f77b4; stroke: #000000; stroke-linejoin: miter"/>
   </g>
   <g id="patch_27">
    <path d="M 362.130976 308.484 
L 374.249339 308.484 
L 374.249339 290.053618 
L 362.130976 290.053618 
z
" clip-path="url(#pd046077424)" style="fill: #1f77b4; stroke: #000000; stroke-linejoin: miter"/>
   </g>
   <g id="patch_28">
    <path d="M 374.249339 308.484 
L 386.367703 308.484 
L 386.367703 294.149259 
L 374.249339 294.149259 
z
" clip-path="url(#pd046077424)" style="fill: #1f77b4; stroke: #000000; stroke-linejoin: miter"/>
   </g>
   <g id="patch_29">
    <path d="M 386.367703 308.484 
L 398.486067 308.484 
L 398.486067 304.38836 
L 386.367703 304.38836 
z
" clip-path="url(#pd046077424)" style="fill: #1f77b4; stroke: #000000; stroke-linejoin: miter"/>
   </g>
   <g id="patch_30">
    <path d="M 398.486067 308.484 
L 410.60443 308.484 
L 410.60443 304.38836 
L 398.486067 304.38836 
z
" clip-path="url(#pd046077424)" style="fill: #1f77b4; stroke: #000000; stroke-linejoin: miter"/>
   </g>
   <g id="patch_31">
    <path d="M 410.60443 308.484 
L 422.722794 308.484 
L 422.722794 308.484 
L 410.60443 308.484 
z
" clip-path="url(#pd046077424)" style="fill: #1f77b4; stroke: #000000; stroke-linejoin: miter"/>
   </g>
   <g id="patch_32">
    <path d="M 422.722794 308.484 
L 434.841158 308.484 
L 434.841158 304.38836 
L 422.722794 304.38836 
z
" clip-path="url(#pd046077424)" style="fill: #1f77b4; stroke: #000000; stroke-linejoin: miter"/>
   </g>
   <g id="patch_33">
    <path d="M 53.112703 308.484 
L 53.112703 59.0595 
" style="fill: none; stroke: #cccccc; stroke-width: 1.25; stroke-linejoin: miter; stroke-linecap: square"/>
   </g>
   <g id="patch_34">
    <path d="M 453.018703 308.484 
L 453.018703 59.0595 
" style="fill: none; stroke: #cccccc; stroke-width: 1.25; stroke-linejoin: miter; stroke-linecap: square"/>
   </g>
   <g id="patch_35">
    <path d="M 53.112703 308.484 
L 453.018703 308.484 
" style="fill: none; stroke: #cccccc; stroke-width: 1.25; stroke-linejoin: miter; stroke-linecap: square"/>
   </g>
   <g id="patch_36">
    <path d="M 53.112703 59.0595 
L 453.018703 59.0595 
" style="fill: none; stroke: #cccccc; stroke-width: 1.25; stroke-linejoin: miter; stroke-linecap: square"/>
   </g>
   <g id="text_15">
    <!-- VAR1 Target Distribution -->
    <g style="fill: #262626" transform="translate(181.409297 53.0595) scale(0.132 -0.132)">
     <defs>
      <path id="ArialMT-56" d="M 1803 0 
L 28 4581 
L 684 4581 
L 1875 1253 
Q 2019 853 2116 503 
Q 2222 878 2363 1253 
L 3600 4581 
L 4219 4581 
L 2425 0 
L 1803 0 
z
" transform="scale(0.015625)"/>
      <path id="ArialMT-41" d="M -9 0 
L 1750 4581 
L 2403 4581 
L 4278 0 
L 3588 0 
L 3053 1388 
L 1138 1388 
L 634 0 
L -9 0 
z
M 1313 1881 
L 2866 1881 
L 2388 3150 
Q 2169 3728 2063 4100 
Q 1975 3659 1816 3225 
L 1313 1881 
z
" transform="scale(0.015625)"/>
      <path id="ArialMT-52" d="M 503 0 
L 503 4581 
L 2534 4581 
Q 3147 4581 3465 4457 
Q 3784 4334 3975 4021 
Q 4166 3709 4166 3331 
Q 4166 2844 3850 2509 
Q 3534 2175 2875 2084 
Q 3116 1969 3241 1856 
Q 3506 1613 3744 1247 
L 4541 0 
L 3778 0 
L 3172 953 
Q 2906 1366 2734 1584 
Q 2563 1803 2427 1890 
Q 2291 1978 2150 2013 
Q 2047 2034 1813 2034 
L 1109 2034 
L 1109 0 
L 503 0 
z
M 1109 2559 
L 2413 2559 
Q 2828 2559 3062 2645 
Q 3297 2731 3419 2920 
Q 3541 3109 3541 3331 
Q 3541 3656 3305 3865 
Q 3069 4075 2559 4075 
L 1109 4075 
L 1109 2559 
z
" transform="scale(0.015625)"/>
      <path id="ArialMT-20" transform="scale(0.015625)"/>
      <path id="ArialMT-54" d="M 1659 0 
L 1659 4041 
L 150 4041 
L 150 4581 
L 3781 4581 
L 3781 4041 
L 2266 4041 
L 2266 0 
L 1659 0 
z
" transform="scale(0.015625)"/>
      <path id="ArialMT-61" d="M 2588 409 
Q 2275 144 1986 34 
Q 1697 -75 1366 -75 
Q 819 -75 525 192 
Q 231 459 231 875 
Q 231 1119 342 1320 
Q 453 1522 633 1644 
Q 813 1766 1038 1828 
Q 1203 1872 1538 1913 
Q 2219 1994 2541 2106 
Q 2544 2222 2544 2253 
Q 2544 2597 2384 2738 
Q 2169 2928 1744 2928 
Q 1347 2928 1158 2789 
Q 969 2650 878 2297 
L 328 2372 
Q 403 2725 575 2942 
Q 747 3159 1072 3276 
Q 1397 3394 1825 3394 
Q 2250 3394 2515 3294 
Q 2781 3194 2906 3042 
Q 3031 2891 3081 2659 
Q 3109 2516 3109 2141 
L 3109 1391 
Q 3109 606 3145 398 
Q 3181 191 3288 0 
L 2700 0 
Q 2613 175 2588 409 
z
M 2541 1666 
Q 2234 1541 1622 1453 
Q 1275 1403 1131 1340 
Q 988 1278 909 1158 
Q 831 1038 831 891 
Q 831 666 1001 516 
Q 1172 366 1500 366 
Q 1825 366 2078 508 
Q 2331 650 2450 897 
Q 2541 1088 2541 1459 
L 2541 1666 
z
" transform="scale(0.015625)"/>
      <path id="ArialMT-67" d="M 319 -275 
L 866 -356 
Q 900 -609 1056 -725 
Q 1266 -881 1628 -881 
Q 2019 -881 2231 -725 
Q 2444 -569 2519 -288 
Q 2563 -116 2559 434 
Q 2191 0 1641 0 
Q 956 0 581 494 
Q 206 988 206 1678 
Q 206 2153 378 2554 
Q 550 2956 876 3175 
Q 1203 3394 1644 3394 
Q 2231 3394 2613 2919 
L 2613 3319 
L 3131 3319 
L 3131 450 
Q 3131 -325 2973 -648 
Q 2816 -972 2473 -1159 
Q 2131 -1347 1631 -1347 
Q 1038 -1347 672 -1080 
Q 306 -813 319 -275 
z
M 784 1719 
Q 784 1066 1043 766 
Q 1303 466 1694 466 
Q 2081 466 2343 764 
Q 2606 1063 2606 1700 
Q 2606 2309 2336 2618 
Q 2066 2928 1684 2928 
Q 1309 2928 1046 2623 
Q 784 2319 784 1719 
z
" transform="scale(0.015625)"/>
      <path id="ArialMT-74" d="M 1650 503 
L 1731 6 
Q 1494 -44 1306 -44 
Q 1000 -44 831 53 
Q 663 150 594 308 
Q 525 466 525 972 
L 525 2881 
L 113 2881 
L 113 3319 
L 525 3319 
L 525 4141 
L 1084 4478 
L 1084 3319 
L 1650 3319 
L 1650 2881 
L 1084 2881 
L 1084 941 
Q 1084 700 1114 631 
Q 1144 563 1211 522 
Q 1278 481 1403 481 
Q 1497 481 1650 503 
z
" transform="scale(0.015625)"/>
      <path id="ArialMT-44" d="M 494 0 
L 494 4581 
L 2072 4581 
Q 2606 4581 2888 4516 
Q 3281 4425 3559 4188 
Q 3922 3881 4101 3404 
Q 4281 2928 4281 2316 
Q 4281 1794 4159 1391 
Q 4038 988 3847 723 
Q 3656 459 3429 307 
Q 3203 156 2883 78 
Q 2563 0 2147 0 
L 494 0 
z
M 1100 541 
L 2078 541 
Q 2531 541 2789 625 
Q 3047 709 3200 863 
Q 3416 1078 3536 1442 
Q 3656 1806 3656 2325 
Q 3656 3044 3420 3430 
Q 3184 3816 2847 3947 
Q 2603 4041 2063 4041 
L 1100 4041 
L 1100 541 
z
" transform="scale(0.015625)"/>
      <path id="ArialMT-69" d="M 425 3934 
L 425 4581 
L 988 4581 
L 988 3934 
L 425 3934 
z
M 425 0 
L 425 3319 
L 988 3319 
L 988 0 
L 425 0 
z
" transform="scale(0.015625)"/>
      <path id="ArialMT-73" d="M 197 991 
L 753 1078 
Q 800 744 1014 566 
Q 1228 388 1613 388 
Q 2000 388 2187 545 
Q 2375 703 2375 916 
Q 2375 1106 2209 1216 
Q 2094 1291 1634 1406 
Q 1016 1563 777 1677 
Q 538 1791 414 1992 
Q 291 2194 291 2438 
Q 291 2659 392 2848 
Q 494 3038 669 3163 
Q 800 3259 1026 3326 
Q 1253 3394 1513 3394 
Q 1903 3394 2198 3281 
Q 2494 3169 2634 2976 
Q 2775 2784 2828 2463 
L 2278 2388 
Q 2241 2644 2061 2787 
Q 1881 2931 1553 2931 
Q 1166 2931 1000 2803 
Q 834 2675 834 2503 
Q 834 2394 903 2306 
Q 972 2216 1119 2156 
Q 1203 2125 1616 2013 
Q 2213 1853 2448 1751 
Q 2684 1650 2818 1456 
Q 2953 1263 2953 975 
Q 2953 694 2789 445 
Q 2625 197 2315 61 
Q 2006 -75 1616 -75 
Q 969 -75 630 194 
Q 291 463 197 991 
z
" transform="scale(0.015625)"/>
      <path id="ArialMT-62" d="M 941 0 
L 419 0 
L 419 4581 
L 981 4581 
L 981 2947 
Q 1338 3394 1891 3394 
Q 2197 3394 2470 3270 
Q 2744 3147 2920 2923 
Q 3097 2700 3197 2384 
Q 3297 2069 3297 1709 
Q 3297 856 2875 390 
Q 2453 -75 1863 -75 
Q 1275 -75 941 416 
L 941 0 
z
M 934 1684 
Q 934 1088 1097 822 
Q 1363 388 1816 388 
Q 2184 388 2453 708 
Q 2722 1028 2722 1663 
Q 2722 2313 2464 2622 
Q 2206 2931 1841 2931 
Q 1472 2931 1203 2611 
Q 934 2291 934 1684 
z
" transform="scale(0.015625)"/>
      <path id="ArialMT-6f" d="M 213 1659 
Q 213 2581 725 3025 
Q 1153 3394 1769 3394 
Q 2453 3394 2887 2945 
Q 3322 2497 3322 1706 
Q 3322 1066 3130 698 
Q 2938 331 2570 128 
Q 2203 -75 1769 -75 
Q 1072 -75 642 372 
Q 213 819 213 1659 
z
M 791 1659 
Q 791 1022 1069 705 
Q 1347 388 1769 388 
Q 2188 388 2466 706 
Q 2744 1025 2744 1678 
Q 2744 2294 2464 2611 
Q 2184 2928 1769 2928 
Q 1347 2928 1069 2612 
Q 791 2297 791 1659 
z
" transform="scale(0.015625)"/>
     </defs>
     <use xlink:href="#ArialMT-56"/>
     <use xlink:href="#ArialMT-41" transform="translate(59.324219 0)"/>
     <use xlink:href="#ArialMT-52" transform="translate(126.023438 0)"/>
     <use xlink:href="#ArialMT-31" transform="translate(198.240234 0)"/>
     <use xlink:href="#ArialMT-20" transform="translate(253.855469 0)"/>
     <use xlink:href="#ArialMT-54" transform="translate(279.888672 0)"/>
     <use xlink:href="#ArialMT-61" transform="translate(329.847656 0)"/>
     <use xlink:href="#ArialMT-72" transform="translate(385.462891 0)"/>
     <use xlink:href="#ArialMT-67" transform="translate(418.763672 0)"/>
     <use xlink:href="#ArialMT-65" transform="translate(474.378906 0)"/>
     <use xlink:href="#ArialMT-74" transform="translate(529.994141 0)"/>
     <use xlink:href="#ArialMT-20" transform="translate(557.777344 0)"/>
     <use xlink:href="#ArialMT-44" transform="translate(585.560547 0)"/>
     <use xlink:href="#ArialMT-69" transform="translate(657.777344 0)"/>
     <use xlink:href="#ArialMT-73" transform="translate(679.994141 0)"/>
     <use xlink:href="#ArialMT-74" transform="translate(729.994141 0)"/>
     <use xlink:href="#ArialMT-72" transform="translate(757.777344 0)"/>
     <use xlink:href="#ArialMT-69" transform="translate(791.078125 0)"/>
     <use xlink:href="#ArialMT-62" transform="translate(813.294922 0)"/>
     <use xlink:href="#ArialMT-75" transform="translate(868.910156 0)"/>
     <use xlink:href="#ArialMT-74" transform="translate(924.525391 0)"/>
     <use xlink:href="#ArialMT-69" transform="translate(952.308594 0)"/>
     <use xlink:href="#ArialMT-6f" transform="translate(974.525391 0)"/>
     <use xlink:href="#ArialMT-6e" transform="translate(1030.140625 0)"/>
    </g>
   </g>
  </g>
  <g id="axes_2">
   <g id="patch_37">
    <path d="M 513.984703 308.484 
L 913.890703 308.484 
L 913.890703 59.0595 
L 513.984703 59.0595 
z
" style="fill: #ffffff"/>
   </g>
   <g id="matplotlib.axis_3">
    <g id="xtick_6">
     <g id="line2d_25">
      <path d="M 531.177884 308.484 
L 531.177884 59.0595 
" clip-path="url(#p9c8c50533a)" style="fill: none; stroke: #cccccc; stroke-linecap: round"/>
     </g>
     <g id="line2d_26">
      <g>
       <use xlink:href="#m8479bdf294" x="531.177884" y="308.484" style="fill: #262626; stroke: #262626; stroke-width: 1.25"/>
      </g>
     </g>
     <g id="text_16">
      <!-- −30 -->
      <g style="fill: #262626" transform="translate(520.915572 326.644953) scale(0.121 -0.121)">
       <defs>
        <path id="ArialMT-33" d="M 269 1209 
L 831 1284 
Q 928 806 1161 595 
Q 1394 384 1728 384 
Q 2125 384 2398 659 
Q 2672 934 2672 1341 
Q 2672 1728 2419 1979 
Q 2166 2231 1775 2231 
Q 1616 2231 1378 2169 
L 1441 2663 
Q 1497 2656 1531 2656 
Q 1891 2656 2178 2843 
Q 2466 3031 2466 3422 
Q 2466 3731 2256 3934 
Q 2047 4138 1716 4138 
Q 1388 4138 1169 3931 
Q 950 3725 888 3313 
L 325 3413 
Q 428 3978 793 4289 
Q 1159 4600 1703 4600 
Q 2078 4600 2393 4439 
Q 2709 4278 2876 4000 
Q 3044 3722 3044 3409 
Q 3044 3113 2884 2869 
Q 2725 2625 2413 2481 
Q 2819 2388 3044 2092 
Q 3269 1797 3269 1353 
Q 3269 753 2831 336 
Q 2394 -81 1725 -81 
Q 1122 -81 723 278 
Q 325 638 269 1209 
z
" transform="scale(0.015625)"/>
       </defs>
       <use xlink:href="#ArialMT-2212"/>
       <use xlink:href="#ArialMT-33" transform="translate(58.398438 0)"/>
       <use xlink:href="#ArialMT-30" transform="translate(114.013672 0)"/>
      </g>
     </g>
    </g>
    <g id="xtick_7">
     <g id="line2d_27">
      <path d="M 583.233569 308.484 
L 583.233569 59.0595 
" clip-path="url(#p9c8c50533a)" style="fill: none; stroke: #cccccc; stroke-linecap: round"/>
     </g>
     <g id="line2d_28">
      <g>
       <use xlink:href="#m8479bdf294" x="583.233569" y="308.484" style="fill: #262626; stroke: #262626; stroke-width: 1.25"/>
      </g>
     </g>
     <g id="text_17">
      <!-- −20 -->
      <g style="fill: #262626" transform="translate(572.971257 326.644953) scale(0.121 -0.121)">
       <use xlink:href="#ArialMT-2212"/>
       <use xlink:href="#ArialMT-32" transform="translate(58.398438 0)"/>
       <use xlink:href="#ArialMT-30" transform="translate(114.013672 0)"/>
      </g>
     </g>
    </g>
    <g id="xtick_8">
     <g id="line2d_29">
      <path d="M 635.289255 308.484 
L 635.289255 59.0595 
" clip-path="url(#p9c8c50533a)" style="fill: none; stroke: #cccccc; stroke-linecap: round"/>
     </g>
     <g id="line2d_30">
      <g>
       <use xlink:href="#m8479bdf294" x="635.289255" y="308.484" style="fill: #262626; stroke: #262626; stroke-width: 1.25"/>
      </g>
     </g>
     <g id="text_18">
      <!-- −10 -->
      <g style="fill: #262626" transform="translate(625.026942 326.644953) scale(0.121 -0.121)">
       <use xlink:href="#ArialMT-2212"/>
       <use xlink:href="#ArialMT-31" transform="translate(58.398438 0)"/>
       <use xlink:href="#ArialMT-30" transform="translate(114.013672 0)"/>
      </g>
     </g>
    </g>
    <g id="xtick_9">
     <g id="line2d_31">
      <path d="M 687.34494 308.484 
L 687.34494 59.0595 
" clip-path="url(#p9c8c50533a)" style="fill: none; stroke: #cccccc; stroke-linecap: round"/>
     </g>
     <g id="line2d_32">
      <g>
       <use xlink:href="#m8479bdf294" x="687.34494" y="308.484" style="fill: #262626; stroke: #262626; stroke-width: 1.25"/>
      </g>
     </g>
     <g id="text_19">
      <!-- 0 -->
      <g style="fill: #262626" transform="translate(683.980573 326.644953) scale(0.121 -0.121)">
       <use xlink:href="#ArialMT-30"/>
      </g>
     </g>
    </g>
    <g id="xtick_10">
     <g id="line2d_33">
      <path d="M 739.400625 308.484 
L 739.400625 59.0595 
" clip-path="url(#p9c8c50533a)" style="fill: none; stroke: #cccccc; stroke-linecap: round"/>
     </g>
     <g id="line2d_34">
      <g>
       <use xlink:href="#m8479bdf294" x="739.400625" y="308.484" style="fill: #262626; stroke: #262626; stroke-width: 1.25"/>
      </g>
     </g>
     <g id="text_20">
      <!-- 10 -->
      <g style="fill: #262626" transform="translate(732.671891 326.644953) scale(0.121 -0.121)">
       <use xlink:href="#ArialMT-31"/>
       <use xlink:href="#ArialMT-30" transform="translate(55.615234 0)"/>
      </g>
     </g>
    </g>
    <g id="xtick_11">
     <g id="line2d_35">
      <path d="M 791.45631 308.484 
L 791.45631 59.0595 
" clip-path="url(#p9c8c50533a)" style="fill: none; stroke: #cccccc; stroke-linecap: round"/>
     </g>
     <g id="line2d_36">
      <g>
       <use xlink:href="#m8479bdf294" x="791.45631" y="308.484" style="fill: #262626; stroke: #262626; stroke-width: 1.25"/>
      </g>
     </g>
     <g id="text_21">
      <!-- 20 -->
      <g style="fill: #262626" transform="translate(784.727576 326.644953) scale(0.121 -0.121)">
       <use xlink:href="#ArialMT-32"/>
       <use xlink:href="#ArialMT-30" transform="translate(55.615234 0)"/>
      </g>
     </g>
    </g>
    <g id="xtick_12">
     <g id="line2d_37">
      <path d="M 843.511995 308.484 
L 843.511995 59.0595 
" clip-path="url(#p9c8c50533a)" style="fill: none; stroke: #cccccc; stroke-linecap: round"/>
     </g>
     <g id="line2d_38">
      <g>
       <use xlink:href="#m8479bdf294" x="843.511995" y="308.484" style="fill: #262626; stroke: #262626; stroke-width: 1.25"/>
      </g>
     </g>
     <g id="text_22">
      <!-- 30 -->
      <g style="fill: #262626" transform="translate(836.783261 326.644953) scale(0.121 -0.121)">
       <use xlink:href="#ArialMT-33"/>
       <use xlink:href="#ArialMT-30" transform="translate(55.615234 0)"/>
      </g>
     </g>
    </g>
    <g id="xtick_13">
     <g id="line2d_39">
      <path d="M 895.567681 308.484 
L 895.567681 59.0595 
" clip-path="url(#p9c8c50533a)" style="fill: none; stroke: #cccccc; stroke-linecap: round"/>
     </g>
     <g id="line2d_40">
      <g>
       <use xlink:href="#m8479bdf294" x="895.567681" y="308.484" style="fill: #262626; stroke: #262626; stroke-width: 1.25"/>
      </g>
     </g>
     <g id="text_23">
      <!-- 40 -->
      <g style="fill: #262626" transform="translate(888.838946 326.644953) scale(0.121 -0.121)">
       <use xlink:href="#ArialMT-34"/>
       <use xlink:href="#ArialMT-30" transform="translate(55.615234 0)"/>
      </g>
     </g>
    </g>
    <g id="text_24">
     <!-- y -->
     <g style="fill: #262626" transform="translate(710.637703 342.343453) scale(0.132 -0.132)">
      <use xlink:href="#ArialMT-79"/>
     </g>
    </g>
   </g>
   <g id="matplotlib.axis_4">
    <g id="ytick_8">
     <g id="line2d_41">
      <path d="M 513.984703 308.484 
L 913.890703 308.484 
" clip-path="url(#p9c8c50533a)" style="fill: none; stroke: #cccccc; stroke-linecap: round"/>
     </g>
     <g id="line2d_42">
      <g>
       <use xlink:href="#m71ab13acde" x="513.984703" y="308.484" style="fill: #262626; stroke: #262626; stroke-width: 1.25"/>
      </g>
     </g>
     <g id="text_25">
      <!-- 0 -->
      <g style="fill: #262626" transform="translate(497.755969 312.814477) scale(0.121 -0.121)">
       <use xlink:href="#ArialMT-30"/>
      </g>
     </g>
    </g>
    <g id="ytick_9">
     <g id="line2d_43">
      <path d="M 513.984703 259.605987 
L 913.890703 259.605987 
" clip-path="url(#p9c8c50533a)" style="fill: none; stroke: #cccccc; stroke-linecap: round"/>
     </g>
     <g id="line2d_44">
      <g>
       <use xlink:href="#m71ab13acde" x="513.984703" y="259.605987" style="fill: #262626; stroke: #262626; stroke-width: 1.25"/>
      </g>
     </g>
     <g id="text_26">
      <!-- 50 -->
      <g style="fill: #262626" transform="translate(491.027234 263.936464) scale(0.121 -0.121)">
       <use xlink:href="#ArialMT-35"/>
       <use xlink:href="#ArialMT-30" transform="translate(55.615234 0)"/>
      </g>
     </g>
    </g>
    <g id="ytick_10">
     <g id="line2d_45">
      <path d="M 513.984703 210.727974 
L 913.890703 210.727974 
" clip-path="url(#p9c8c50533a)" style="fill: none; stroke: #cccccc; stroke-linecap: round"/>
     </g>
     <g id="line2d_46">
      <g>
       <use xlink:href="#m71ab13acde" x="513.984703" y="210.727974" style="fill: #262626; stroke: #262626; stroke-width: 1.25"/>
      </g>
     </g>
     <g id="text_27">
      <!-- 100 -->
      <g style="fill: #262626" transform="translate(484.2985 215.058451) scale(0.121 -0.121)">
       <use xlink:href="#ArialMT-31"/>
       <use xlink:href="#ArialMT-30" transform="translate(55.615234 0)"/>
       <use xlink:href="#ArialMT-30" transform="translate(111.230469 0)"/>
      </g>
     </g>
    </g>
    <g id="ytick_11">
     <g id="line2d_47">
      <path d="M 513.984703 161.849961 
L 913.890703 161.849961 
" clip-path="url(#p9c8c50533a)" style="fill: none; stroke: #cccccc; stroke-linecap: round"/>
     </g>
     <g id="line2d_48">
      <g>
       <use xlink:href="#m71ab13acde" x="513.984703" y="161.849961" style="fill: #262626; stroke: #262626; stroke-width: 1.25"/>
      </g>
     </g>
     <g id="text_28">
      <!-- 150 -->
      <g style="fill: #262626" transform="translate(484.2985 166.180438) scale(0.121 -0.121)">
       <use xlink:href="#ArialMT-31"/>
       <use xlink:href="#ArialMT-35" transform="translate(55.615234 0)"/>
       <use xlink:href="#ArialMT-30" transform="translate(111.230469 0)"/>
      </g>
     </g>
    </g>
    <g id="ytick_12">
     <g id="line2d_49">
      <path d="M 513.984703 112.971948 
L 913.890703 112.971948 
" clip-path="url(#p9c8c50533a)" style="fill: none; stroke: #cccccc; stroke-linecap: round"/>
     </g>
     <g id="line2d_50">
      <g>
       <use xlink:href="#m71ab13acde" x="513.984703" y="112.971948" style="fill: #262626; stroke: #262626; stroke-width: 1.25"/>
      </g>
     </g>
     <g id="text_29">
      <!-- 200 -->
      <g style="fill: #262626" transform="translate(484.2985 117.302425) scale(0.121 -0.121)">
       <use xlink:href="#ArialMT-32"/>
       <use xlink:href="#ArialMT-30" transform="translate(55.615234 0)"/>
       <use xlink:href="#ArialMT-30" transform="translate(111.230469 0)"/>
      </g>
     </g>
    </g>
    <g id="ytick_13">
     <g id="line2d_51">
      <path d="M 513.984703 64.093935 
L 913.890703 64.093935 
" clip-path="url(#p9c8c50533a)" style="fill: none; stroke: #cccccc; stroke-linecap: round"/>
     </g>
     <g id="line2d_52">
      <g>
       <use xlink:href="#m71ab13acde" x="513.984703" y="64.093935" style="fill: #262626; stroke: #262626; stroke-width: 1.25"/>
      </g>
     </g>
     <g id="text_30">
      <!-- 250 -->
      <g style="fill: #262626" transform="translate(484.2985 68.424412) scale(0.121 -0.121)">
       <use xlink:href="#ArialMT-32"/>
       <use xlink:href="#ArialMT-35" transform="translate(55.615234 0)"/>
       <use xlink:href="#ArialMT-30" transform="translate(111.230469 0)"/>
      </g>
     </g>
    </g>
    <g id="text_31">
     <!-- Frequency -->
     <g style="fill: #262626" transform="translate(477.520312 214.951594) rotate(-90) scale(0.132 -0.132)">
      <use xlink:href="#ArialMT-46"/>
      <use xlink:href="#ArialMT-72" transform="translate(61.083984 0)"/>
      <use xlink:href="#ArialMT-65" transform="translate(94.384766 0)"/>
      <use xlink:href="#ArialMT-71" transform="translate(150 0)"/>
      <use xlink:href="#ArialMT-75" transform="translate(205.615234 0)"/>
      <use xlink:href="#ArialMT-65" transform="translate(261.230469 0)"/>
      <use xlink:href="#ArialMT-6e" transform="translate(316.845703 0)"/>
      <use xlink:href="#ArialMT-63" transform="translate(372.460938 0)"/>
      <use xlink:href="#ArialMT-79" transform="translate(422.460938 0)"/>
     </g>
    </g>
   </g>
   <g id="patch_38">
    <path d="M 532.162249 308.484 
L 544.280612 308.484 
L 544.280612 307.50644 
L 532.162249 307.50644 
z
" clip-path="url(#p9c8c50533a)" style="fill: #1f77b4; stroke: #000000; stroke-linejoin: miter"/>
   </g>
   <g id="patch_39">
    <path d="M 544.280612 308.484 
L 556.398976 308.484 
L 556.398976 308.484 
L 544.280612 308.484 
z
" clip-path="url(#p9c8c50533a)" style="fill: #1f77b4; stroke: #000000; stroke-linejoin: miter"/>
   </g>
   <g id="patch_40">
    <path d="M 556.398976 308.484 
L 568.517339 308.484 
L 568.517339 308.484 
L 556.398976 308.484 
z
" clip-path="url(#p9c8c50533a)" style="fill: #1f77b4; stroke: #000000; stroke-linejoin: miter"/>
   </g>
   <g id="patch_41">
    <path d="M 568.517339 308.484 
L 580.635703 308.484 
L 580.635703 306.528879 
L 568.517339 306.528879 
z
" clip-path="url(#p9c8c50533a)" style="fill: #1f77b4; stroke: #000000; stroke-linejoin: miter"/>
   </g>
   <g id="patch_42">
    <path d="M 580.635703 308.484 
L 592.754067 308.484 
L 592.754067 305.551319 
L 580.635703 305.551319 
z
" clip-path="url(#p9c8c50533a)" style="fill: #1f77b4; stroke: #000000; stroke-linejoin: miter"/>
   </g>
   <g id="patch_43">
    <path d="M 592.754067 308.484 
L 604.87243 308.484 
L 604.87243 306.528879 
L 592.754067 306.528879 
z
" clip-path="url(#p9c8c50533a)" style="fill: #1f77b4; stroke: #000000; stroke-linejoin: miter"/>
   </g>
   <g id="patch_44">
    <path d="M 604.87243 308.484 
L 616.990794 308.484 
L 616.990794 303.596199 
L 604.87243 303.596199 
z
" clip-path="url(#p9c8c50533a)" style="fill: #1f77b4; stroke: #000000; stroke-linejoin: miter"/>
   </g>
   <g id="patch_45">
    <path d="M 616.990794 308.484 
L 629.109158 308.484 
L 629.109158 298.708397 
L 616.990794 298.708397 
z
" clip-path="url(#p9c8c50533a)" style="fill: #1f77b4; stroke: #000000; stroke-linejoin: miter"/>
   </g>
   <g id="patch_46">
    <path d="M 629.109158 308.484 
L 641.227521 308.484 
L 641.227521 297.730837 
L 629.109158 297.730837 
z
" clip-path="url(#p9c8c50533a)" style="fill: #1f77b4; stroke: #000000; stroke-linejoin: miter"/>
   </g>
   <g id="patch_47">
    <path d="M 641.227521 308.484 
L 653.345885 308.484 
L 653.345885 282.089873 
L 641.227521 282.089873 
z
" clip-path="url(#p9c8c50533a)" style="fill: #1f77b4; stroke: #000000; stroke-linejoin: miter"/>
   </g>
   <g id="patch_48">
    <path d="M 653.345885 308.484 
L 665.464249 308.484 
L 665.464249 273.291831 
L 653.345885 273.291831 
z
" clip-path="url(#p9c8c50533a)" style="fill: #1f77b4; stroke: #000000; stroke-linejoin: miter"/>
   </g>
   <g id="patch_49">
    <path d="M 665.464249 308.484 
L 677.582612 308.484 
L 677.582612 221.481137 
L 665.464249 221.481137 
z
" clip-path="url(#p9c8c50533a)" style="fill: #1f77b4; stroke: #000000; stroke-linejoin: miter"/>
   </g>
   <g id="patch_50">
    <path d="M 677.582612 308.484 
L 689.700976 308.484 
L 689.700976 102.218785 
L 677.582612 102.218785 
z
" clip-path="url(#p9c8c50533a)" style="fill: #1f77b4; stroke: #000000; stroke-linejoin: miter"/>
   </g>
   <g id="patch_51">
    <path d="M 689.700976 308.484 
L 701.819339 308.484 
L 701.819339 70.936857 
L 689.700976 70.936857 
z
" clip-path="url(#p9c8c50533a)" style="fill: #1f77b4; stroke: #000000; stroke-linejoin: miter"/>
   </g>
   <g id="patch_52">
    <path d="M 701.819339 308.484 
L 713.937703 308.484 
L 713.937703 190.199209 
L 701.819339 190.199209 
z
" clip-path="url(#p9c8c50533a)" style="fill: #1f77b4; stroke: #000000; stroke-linejoin: miter"/>
   </g>
   <g id="patch_53">
    <path d="M 713.937703 308.484 
L 726.056067 308.484 
L 726.056067 234.18942 
L 713.937703 234.18942 
z
" clip-path="url(#p9c8c50533a)" style="fill: #1f77b4; stroke: #000000; stroke-linejoin: miter"/>
   </g>
   <g id="patch_54">
    <path d="M 726.056067 308.484 
L 738.17443 308.484 
L 738.17443 248.852824 
L 726.056067 248.852824 
z
" clip-path="url(#p9c8c50533a)" style="fill: #1f77b4; stroke: #000000; stroke-linejoin: miter"/>
   </g>
   <g id="patch_55">
    <path d="M 738.17443 308.484 
L 750.292794 308.484 
L 750.292794 273.291831 
L 738.17443 273.291831 
z
" clip-path="url(#p9c8c50533a)" style="fill: #1f77b4; stroke: #000000; stroke-linejoin: miter"/>
   </g>
   <g id="patch_56">
    <path d="M 750.292794 308.484 
L 762.411158 308.484 
L 762.411158 286.000114 
L 750.292794 286.000114 
z
" clip-path="url(#p9c8c50533a)" style="fill: #1f77b4; stroke: #000000; stroke-linejoin: miter"/>
   </g>
   <g id="patch_57">
    <path d="M 762.411158 308.484 
L 774.529521 308.484 
L 774.529521 293.820596 
L 762.411158 293.820596 
z
" clip-path="url(#p9c8c50533a)" style="fill: #1f77b4; stroke: #000000; stroke-linejoin: miter"/>
   </g>
   <g id="patch_58">
    <path d="M 774.529521 308.484 
L 786.647885 308.484 
L 786.647885 300.663518 
L 774.529521 300.663518 
z
" clip-path="url(#p9c8c50533a)" style="fill: #1f77b4; stroke: #000000; stroke-linejoin: miter"/>
   </g>
   <g id="patch_59">
    <path d="M 786.647885 308.484 
L 798.766249 308.484 
L 798.766249 300.663518 
L 786.647885 300.663518 
z
" clip-path="url(#p9c8c50533a)" style="fill: #1f77b4; stroke: #000000; stroke-linejoin: miter"/>
   </g>
   <g id="patch_60">
    <path d="M 798.766249 308.484 
L 810.884612 308.484 
L 810.884612 303.596199 
L 798.766249 303.596199 
z
" clip-path="url(#p9c8c50533a)" style="fill: #1f77b4; stroke: #000000; stroke-linejoin: miter"/>
   </g>
   <g id="patch_61">
    <path d="M 810.884612 308.484 
L 823.002976 308.484 
L 823.002976 306.528879 
L 810.884612 306.528879 
z
" clip-path="url(#p9c8c50533a)" style="fill: #1f77b4; stroke: #000000; stroke-linejoin: miter"/>
   </g>
   <g id="patch_62">
    <path d="M 823.002976 308.484 
L 835.121339 308.484 
L 835.121339 308.484 
L 823.002976 308.484 
z
" clip-path="url(#p9c8c50533a)" style="fill: #1f77b4; stroke: #000000; stroke-linejoin: miter"/>
   </g>
   <g id="patch_63">
    <path d="M 835.121339 308.484 
L 847.239703 308.484 
L 847.239703 307.50644 
L 835.121339 307.50644 
z
" clip-path="url(#p9c8c50533a)" style="fill: #1f77b4; stroke: #000000; stroke-linejoin: miter"/>
   </g>
   <g id="patch_64">
    <path d="M 847.239703 308.484 
L 859.358067 308.484 
L 859.358067 308.484 
L 847.239703 308.484 
z
" clip-path="url(#p9c8c50533a)" style="fill: #1f77b4; stroke: #000000; stroke-linejoin: miter"/>
   </g>
   <g id="patch_65">
    <path d="M 859.358067 308.484 
L 871.47643 308.484 
L 871.47643 308.484 
L 859.358067 308.484 
z
" clip-path="url(#p9c8c50533a)" style="fill: #1f77b4; stroke: #000000; stroke-linejoin: miter"/>
   </g>
   <g id="patch_66">
    <path d="M 871.47643 308.484 
L 883.594794 308.484 
L 883.594794 307.50644 
L 871.47643 307.50644 
z
" clip-path="url(#p9c8c50533a)" style="fill: #1f77b4; stroke: #000000; stroke-linejoin: miter"/>
   </g>
   <g id="patch_67">
    <path d="M 883.594794 308.484 
L 895.713158 308.484 
L 895.713158 305.551319 
L 883.594794 305.551319 
z
" clip-path="url(#p9c8c50533a)" style="fill: #1f77b4; stroke: #000000; stroke-linejoin: miter"/>
   </g>
   <g id="patch_68">
    <path d="M 513.984703 308.484 
L 513.984703 59.0595 
" style="fill: none; stroke: #cccccc; stroke-width: 1.25; stroke-linejoin: miter; stroke-linecap: square"/>
   </g>
   <g id="patch_69">
    <path d="M 913.890703 308.484 
L 913.890703 59.0595 
" style="fill: none; stroke: #cccccc; stroke-width: 1.25; stroke-linejoin: miter; stroke-linecap: square"/>
   </g>
   <g id="patch_70">
    <path d="M 513.984703 308.484 
L 913.890703 308.484 
" style="fill: none; stroke: #cccccc; stroke-width: 1.25; stroke-linejoin: miter; stroke-linecap: square"/>
   </g>
   <g id="patch_71">
    <path d="M 513.984703 59.0595 
L 913.890703 59.0595 
" style="fill: none; stroke: #cccccc; stroke-width: 1.25; stroke-linejoin: miter; stroke-linecap: square"/>
   </g>
   <g id="text_32">
    <!-- VAR2 Target Distribution -->
    <g style="fill: #262626" transform="translate(642.281297 53.0595) scale(0.132 -0.132)">
     <use xlink:href="#ArialMT-56"/>
     <use xlink:href="#ArialMT-41" transform="translate(59.324219 0)"/>
     <use xlink:href="#ArialMT-52" transform="translate(126.023438 0)"/>
     <use xlink:href="#ArialMT-32" transform="translate(198.240234 0)"/>
     <use xlink:href="#ArialMT-20" transform="translate(253.855469 0)"/>
     <use xlink:href="#ArialMT-54" transform="translate(279.888672 0)"/>
     <use xlink:href="#ArialMT-61" transform="translate(329.847656 0)"/>
     <use xlink:href="#ArialMT-72" transform="translate(385.462891 0)"/>
     <use xlink:href="#ArialMT-67" transform="translate(418.763672 0)"/>
     <use xlink:href="#ArialMT-65" transform="translate(474.378906 0)"/>
     <use xlink:href="#ArialMT-74" transform="translate(529.994141 0)"/>
     <use xlink:href="#ArialMT-20" transform="translate(557.777344 0)"/>
     <use xlink:href="#ArialMT-44" transform="translate(585.560547 0)"/>
     <use xlink:href="#ArialMT-69" transform="translate(657.777344 0)"/>
     <use xlink:href="#ArialMT-73" transform="translate(679.994141 0)"/>
     <use xlink:href="#ArialMT-74" transform="translate(729.994141 0)"/>
     <use xlink:href="#ArialMT-72" transform="translate(757.777344 0)"/>
     <use xlink:href="#ArialMT-69" transform="translate(791.078125 0)"/>
     <use xlink:href="#ArialMT-62" transform="translate(813.294922 0)"/>
     <use xlink:href="#ArialMT-75" transform="translate(868.910156 0)"/>
     <use xlink:href="#ArialMT-74" transform="translate(924.525391 0)"/>
     <use xlink:href="#ArialMT-69" transform="translate(952.308594 0)"/>
     <use xlink:href="#ArialMT-6f" transform="translate(974.525391 0)"/>
     <use xlink:href="#ArialMT-6e" transform="translate(1030.140625 0)"/>
    </g>
   </g>
  </g>
  <g id="text_33">
   <!-- Training Target Distributions -->
   <g style="fill: #262626" transform="translate(360.999203 18.6525) scale(0.16 -0.16)">
    <use xlink:href="#ArialMT-54"/>
    <use xlink:href="#ArialMT-72" transform="translate(57.333984 0)"/>
    <use xlink:href="#ArialMT-61" transform="translate(90.634766 0)"/>
    <use xlink:href="#ArialMT-69" transform="translate(146.25 0)"/>
    <use xlink:href="#ArialMT-6e" transform="translate(168.466797 0)"/>
    <use xlink:href="#ArialMT-69" transform="translate(224.082031 0)"/>
    <use xlink:href="#ArialMT-6e" transform="translate(246.298828 0)"/>
    <use xlink:href="#ArialMT-67" transform="translate(301.914062 0)"/>
    <use xlink:href="#ArialMT-20" transform="translate(357.529297 0)"/>
    <use xlink:href="#ArialMT-54" transform="translate(383.5625 0)"/>
    <use xlink:href="#ArialMT-61" transform="translate(433.521484 0)"/>
    <use xlink:href="#ArialMT-72" transform="translate(489.136719 0)"/>
    <use xlink:href="#ArialMT-67" transform="translate(522.4375 0)"/>
    <use xlink:href="#ArialMT-65" transform="translate(578.052734 0)"/>
    <use xlink:href="#ArialMT-74" transform="translate(633.667969 0)"/>
    <use xlink:href="#ArialMT-20" transform="translate(661.451172 0)"/>
    <use xlink:href="#ArialMT-44" transform="translate(689.234375 0)"/>
    <use xlink:href="#ArialMT-69" transform="translate(761.451172 0)"/>
    <use xlink:href="#ArialMT-73" transform="translate(783.667969 0)"/>
    <use xlink:href="#ArialMT-74" transform="translate(833.667969 0)"/>
    <use xlink:href="#ArialMT-72" transform="translate(861.451172 0)"/>
    <use xlink:href="#ArialMT-69" transform="translate(894.751953 0)"/>
    <use xlink:href="#ArialMT-62" transform="translate(916.96875 0)"/>
    <use xlink:href="#ArialMT-75" transform="translate(972.583984 0)"/>
    <use xlink:href="#ArialMT-74" transform="translate(1028.199219 0)"/>
    <use xlink:href="#ArialMT-69" transform="translate(1055.982422 0)"/>
    <use xlink:href="#ArialMT-6f" transform="translate(1078.199219 0)"/>
    <use xlink:href="#ArialMT-6e" transform="translate(1133.814453 0)"/>
    <use xlink:href="#ArialMT-73" transform="translate(1189.429688 0)"/>
   </g>
  </g>
 </g>
 <defs>
  <clipPath id="pd046077424">
   <rect x="53.112703" y="59.0595" width="399.906" height="249.4245"/>
  </clipPath>
  <clipPath id="p9c8c50533a">
   <rect x="513.984703" y="59.0595" width="399.906" height="249.4245"/>
  </clipPath>
 </defs>
</svg>
